<svg xmlns="http://www.w3.org/2000/svg" viewBox="0 0 640 400" width="640" height="400">
  <defs>
    <linearGradient id="pzBg" x1="0" y1="0" x2="0" y2="1">
      <stop offset="0" stop-color="#121724"/>
      <stop offset="1" stop-color="#0a0d14"/>
    </linearGradient>
    <radialGradient id="pzGlow" cx="50%" cy="50%" r="50%">
      <stop offset="0" stop-color="#a78bfa" stop-opacity=".26"/>
      <stop offset="1" stop-color="#a78bfa" stop-opacity="0"/>
    </radialGradient>
    <pattern id="pzGrid" width="32" height="32" patternUnits="userSpaceOnUse">
      <path d="M32 0H0v32" fill="none" stroke="#161c28" stroke-width="1"/>
    </pattern>
  </defs>

  <rect width="640" height="400" fill="url(#pzBg)"/>
  <rect width="640" height="400" fill="url(#pzGrid)"/>
  <ellipse cx="300" cy="200" rx="270" ry="180" fill="url(#pzGlow)"/>

  <!-- sliding tile grid -->
  <g font-family="Segoe UI, system-ui, sans-serif" font-size="32" font-weight="700" fill="#b9c2d2" text-anchor="middle">
    <rect x="60" y="84" width="76" height="76" rx="12" fill="#171e2c" stroke="#2a3345" stroke-width="2"/>
    <text x="98" y="134">1</text>
    <rect x="146" y="84" width="76" height="76" rx="12" fill="#171e2c" stroke="#2a3345" stroke-width="2"/>
    <text x="184" y="134">2</text>
    <rect x="232" y="84" width="76" height="76" rx="12" fill="#171e2c" stroke="#2a3345" stroke-width="2"/>
    <text x="270" y="134">3</text>

    <rect x="60" y="170" width="76" height="76" rx="12" fill="#171e2c" stroke="#2a3345" stroke-width="2"/>
    <text x="98" y="220">4</text>
    <rect x="146" y="170" width="76" height="76" rx="12" fill="#171e2c" stroke="#2a3345" stroke-width="2"/>
    <text x="184" y="220">5</text>
    <rect x="232" y="170" width="76" height="76" rx="12" fill="#171e2c" stroke="#2a3345" stroke-width="2"/>
    <text x="270" y="220">6</text>

    <rect x="60" y="256" width="76" height="76" rx="12" fill="#171e2c" stroke="#2a3345" stroke-width="2"/>
    <text x="98" y="306">7</text>
    <rect x="146" y="256" width="76" height="76" rx="12" fill="#1e1b33" stroke="#a78bfa" stroke-width="2.5"/>
    <text x="184" y="306" fill="#d9d2ff">8</text>
    <rect x="232" y="256" width="76" height="76" rx="12" fill="#0f131c" stroke="#a78bfa" stroke-opacity=".55" stroke-width="2" stroke-dasharray="7 6"/>
  </g>
  <path d="M240 294h22" fill="none" stroke="#a78bfa" stroke-width="3" stroke-linecap="round"/>
  <path d="M256 286l9 8-9 8" fill="none" stroke="#a78bfa" stroke-width="3" stroke-linecap="round" stroke-linejoin="round"/>

  <!-- best-first search tree -->
  <g fill="none" stroke="#2a3345" stroke-width="2">
    <path d="M470 130l-54 76M416 206l-28 80M416 206l28 80M524 206l-28 80"/>
  </g>
  <path d="M470 130l54 76M524 206l28 80" fill="none" stroke="#a78bfa" stroke-width="3"/>

  <g fill="#171e2c" stroke="#2a3345" stroke-width="2">
    <circle cx="416" cy="206" r="13"/>
    <circle cx="388" cy="286" r="13"/>
    <circle cx="444" cy="286" r="13"/>
    <circle cx="496" cy="286" r="13"/>
  </g>
  <g fill="#1e1b33" stroke="#a78bfa" stroke-width="2.5">
    <circle cx="470" cy="130" r="13"/>
    <circle cx="524" cy="206" r="13"/>
  </g>
  <circle cx="552" cy="286" r="14" fill="#a78bfa"/>
  <circle cx="552" cy="286" r="22" fill="none" stroke="#a78bfa" stroke-opacity=".35" stroke-width="2"/>
</svg>
